<svg width="43" height="26" viewBox="0 0 43 26" fill="none" xmlns="http://www.w3.org/2000/svg">
<path d="M19.492 8.864C19.492 10.328 19.156 11.672 18.484 12.896C17.812 14.096 16.78 15.068 15.388 15.812C13.996 16.556 12.268 16.928 10.204 16.928H6.388V26H0.232V0.727999H10.204C12.22 0.727999 13.924 1.076 15.316 1.772C16.708 2.468 17.752 3.428 18.448 4.652C19.144 5.876 19.492 7.28 19.492 8.864ZM9.736 12.032C10.912 12.032 11.788 11.756 12.364 11.204C12.94 10.652 13.228 9.872 13.228 8.864C13.228 7.856 12.94 7.076 12.364 6.524C11.788 5.972 10.912 5.696 9.736 5.696H6.388V12.032H9.736ZM35.5848 26L30.3288 16.46H28.8528V26H22.6968V0.727999H33.0288C35.0208 0.727999 36.7128 1.076 38.1048 1.772C39.5208 2.468 40.5768 3.428 41.2728 4.652C41.9688 5.852 42.3168 7.196 42.3168 8.684C42.3168 10.364 41.8368 11.864 40.8768 13.184C39.9408 14.504 38.5488 15.44 36.7008 15.992L42.5328 26H35.5848ZM28.8528 12.104H32.6688C33.7968 12.104 34.6368 11.828 35.1888 11.276C35.7648 10.724 36.0528 9.944 36.0528 8.936C36.0528 7.976 35.7648 7.22 35.1888 6.668C34.6368 6.116 33.7968 5.84 32.6688 5.84H28.8528V12.104Z" fill="#4FBDBA"/>
</svg>
